<svg xmlns="http://www.w3.org/2000/svg" xmlns:xlink="http://www.w3.org/1999/xlink" version="1.1" width="256" height="256" viewBox="0 0 256 256" xml:space="preserve">

<defs>
</defs>
<g style="stroke: none; stroke-width: 0; stroke-dasharray: none; stroke-linecap: butt; stroke-linejoin: miter; stroke-miterlimit: 10; fill: none; fill-rule: nonzero; opacity: 1;" transform="translate(1.4065934065934016 1.4065934065934016) scale(2.81 2.81)" >
	<path d="M 46.439 10.843 h -4.61 c -0.82 0 -1.484 0.664 -1.484 1.484 v 8.502 v 6.324 c 0 0.82 0.664 1.484 1.484 1.484 s 1.484 -0.664 1.484 -1.484 v -4.841 h 3.126 c 2.964 0 5.376 -2.412 5.376 -5.376 v -0.717 C 51.815 13.255 49.403 10.843 46.439 10.843 z M 48.848 16.936 c 0 1.328 -1.081 2.409 -2.409 2.409 h -3.126 V 13.81 h 3.126 c 1.328 0 2.409 1.081 2.409 2.409 V 16.936 z" style="stroke: none; stroke-width: 1; stroke-dasharray: none; stroke-linecap: butt; stroke-linejoin: miter; stroke-miterlimit: 10; fill: rgb(0,0,0); fill-rule: nonzero; opacity: 1;" transform=" matrix(1 0 0 1 0 0) " stroke-linecap="round" />
	<path d="M 78.687 26.506 L 45.926 0.325 c -0.542 -0.433 -1.311 -0.433 -1.852 0 L 11.313 26.506 c -0.352 0.281 -0.557 0.708 -0.557 1.159 v 58.601 c 0 2.059 1.675 3.734 3.734 3.734 H 75.51 c 2.059 0 3.734 -1.675 3.734 -3.734 V 27.665 C 79.244 27.214 79.039 26.787 78.687 26.506 z M 50.069 63.139 c -3.102 0 -5.702 2.169 -6.376 5.069 H 32.01 l 2.708 -6.97 c 0.098 -0.251 0.345 -0.42 0.615 -0.42 h 19.335 c 0.273 0 0.515 0.165 0.613 0.42 l 2.709 6.97 h -1.545 C 55.771 65.308 53.171 63.139 50.069 63.139 z M 53.323 68.208 h -6.509 c 0.566 -1.236 1.808 -2.102 3.254 -2.102 C 51.516 66.106 52.757 66.972 53.323 68.208 z M 60.114 71.175 c 0.002 0 0.004 0 0.007 0 h 0.038 c 0.135 0 0.258 0.069 0.33 0.183 l 1.522 2.418 c 0.04 0.062 0.06 0.133 0.06 0.207 v 3.884 v 1.895 c 0 0.215 -0.176 0.391 -0.391 0.391 H 28.321 c -0.216 0 -0.392 -0.176 -0.392 -0.391 v -1.895 v -3.884 c 0 -0.073 0.021 -0.146 0.06 -0.209 l 1.521 -2.416 c 0.071 -0.113 0.198 -0.183 0.332 -0.183 H 60.114 z M 56.09 85.859 v -2.74 h 5.59 c 0.134 0 0.261 -0.024 0.391 -0.039 v 2.78 c 0 0.425 -0.358 0.783 -0.783 0.783 h -4.414 C 56.449 86.643 56.09 86.284 56.09 85.859 z M 28.321 83.119 h 5.589 v 2.74 c 0 0.425 -0.359 0.783 -0.783 0.783 h -4.414 c -0.424 0 -0.783 -0.358 -0.783 -0.783 v -2.78 C 28.059 83.095 28.187 83.119 28.321 83.119 z M 36.877 85.859 v -2.74 h 16.246 v 2.74 c 0 0.412 0.083 0.802 0.207 1.173 H 36.671 C 36.794 86.662 36.877 86.272 36.877 85.859 z M 70.573 87.033 h -5.741 c 0.123 -0.371 0.207 -0.761 0.207 -1.173 v -6.098 v -1.895 v -3.884 c 0 -0.635 -0.179 -1.254 -0.517 -1.789 L 63 69.777 c -0.414 -0.659 -1.037 -1.118 -1.746 -1.364 l -3.206 -8.25 c -0.546 -1.405 -1.872 -2.313 -3.379 -2.313 H 35.333 c -1.507 0 -2.834 0.908 -3.38 2.313 l -3.206 8.25 c -0.709 0.245 -1.333 0.705 -1.748 1.364 l -1.52 2.415 c -0.339 0.536 -0.517 1.155 -0.517 1.791 v 3.884 v 1.895 v 6.098 c 0 0.412 0.083 0.802 0.207 1.173 h -5.826 V 52.608 h 51.23 V 87.033 z M 70.573 49.641 h -51.23 v -2.434 h 51.23 V 49.641 z M 70.573 44.24 h -51.23 v -2.433 h 51.23 V 44.24 z M 70.573 38.839 h -51.23 v -2.433 h 51.23 V 38.839 z M 76.277 86.266 c 0 0.423 -0.344 0.767 -0.767 0.767 h -1.97 v -52.11 c 0 -0.82 -0.665 -1.484 -1.484 -1.484 H 17.859 c -0.82 0 -1.484 0.664 -1.484 1.484 v 52.11 h -1.885 c -0.423 0 -0.767 -0.344 -0.767 -0.767 V 28.378 L 45 3.383 l 31.276 24.995 V 86.266 z" style="stroke: none; stroke-width: 1; stroke-dasharray: none; stroke-linecap: butt; stroke-linejoin: miter; stroke-miterlimit: 10; fill: rgb(0,0,0); fill-rule: nonzero; opacity: 1;" transform=" matrix(1 0 0 1 0 0) " stroke-linecap="round" />
	<path d="M 31.363 77.303 h 5.672 c 0.82 0 1.484 -0.664 1.484 -1.484 s -0.664 -1.484 -1.484 -1.484 h -5.672 c -0.82 0 -1.484 0.664 -1.484 1.484 S 30.543 77.303 31.363 77.303 z" style="stroke: none; stroke-width: 1; stroke-dasharray: none; stroke-linecap: butt; stroke-linejoin: miter; stroke-miterlimit: 10; fill: rgb(0,0,0); fill-rule: nonzero; opacity: 1;" transform=" matrix(1 0 0 1 0 0) " stroke-linecap="round" />
	<path d="M 52.965 77.303 h 5.672 c 0.819 0 1.484 -0.664 1.484 -1.484 s -0.664 -1.484 -1.484 -1.484 h -5.672 c -0.819 0 -1.484 0.664 -1.484 1.484 S 52.146 77.303 52.965 77.303 z" style="stroke: none; stroke-width: 1; stroke-dasharray: none; stroke-linecap: butt; stroke-linejoin: miter; stroke-miterlimit: 10; fill: rgb(0,0,0); fill-rule: nonzero; opacity: 1;" transform=" matrix(1 0 0 1 0 0) " stroke-linecap="round" />
</g>
</svg>