<svg xmlns="http://www.w3.org/2000/svg" xmlns:xlink="http://www.w3.org/1999/xlink" version="1.1" width="256" height="256" viewBox="0 0 256 256" xml:space="preserve">

<defs>
</defs>
<g style="stroke: none; stroke-width: 0; stroke-dasharray: none; stroke-linecap: butt; stroke-linejoin: miter; stroke-miterlimit: 10; fill: none; fill-rule: nonzero; opacity: 1;" transform="translate(1.4065934065934016 1.4065934065934016) scale(2.81 2.81)" >
	<path d="M 67.433 90 H 22.567 c -1.059 0 -1.935 -0.826 -1.997 -1.883 l -3.778 -64.518 c -0.032 -0.55 0.164 -1.088 0.542 -1.489 c 0.378 -0.401 0.904 -0.628 1.455 -0.628 h 52.42 c 0.551 0 1.077 0.227 1.455 0.628 c 0.378 0.4 0.573 0.939 0.542 1.489 L 69.43 88.117 C 69.367 89.174 68.492 90 67.433 90 z M 24.454 86 h 41.092 l 3.544 -60.518 H 20.91 L 24.454 86 z" style="stroke: none; stroke-width: 1; stroke-dasharray: none; stroke-linecap: butt; stroke-linejoin: miter; stroke-miterlimit: 10; fill: rgb(0,0,0); fill-rule: nonzero; opacity: 1;" transform=" matrix(1 0 0 1 0 0) " stroke-linecap="round" />
	<path d="M 76.714 25.482 H 13.286 c -1.104 0 -2 -0.896 -2 -2 v -3.961 c 0 -5.188 4.221 -9.41 9.41 -9.41 h 48.609 c 5.188 0 9.409 4.221 9.409 9.41 v 3.961 C 78.714 24.587 77.818 25.482 76.714 25.482 z M 15.286 21.482 h 59.428 v -1.961 c 0 -2.983 -2.427 -5.41 -5.409 -5.41 H 20.696 c -2.983 0 -5.41 2.427 -5.41 5.41 V 21.482 z" style="stroke: none; stroke-width: 1; stroke-dasharray: none; stroke-linecap: butt; stroke-linejoin: miter; stroke-miterlimit: 10; fill: rgb(0,0,0); fill-rule: nonzero; opacity: 1;" transform=" matrix(1 0 0 1 0 0) " stroke-linecap="round" />
	<path d="M 57.197 14.112 H 32.803 c -1.104 0 -2 -0.896 -2 -2 C 30.803 5.433 36.236 0 42.915 0 h 4.17 c 6.679 0 12.112 5.433 12.112 12.112 C 59.197 13.216 58.302 14.112 57.197 14.112 z M 35.052 10.112 h 19.896 C 54.055 6.603 50.868 4 47.085 4 h -4.17 C 39.131 4 35.945 6.603 35.052 10.112 z" style="stroke: none; stroke-width: 1; stroke-dasharray: none; stroke-linecap: butt; stroke-linejoin: miter; stroke-miterlimit: 10; fill: rgb(0,0,0); fill-rule: nonzero; opacity: 1;" transform=" matrix(1 0 0 1 0 0) " stroke-linecap="round" />
	<path d="M 55.865 75.688 c -0.039 0 -0.079 -0.001 -0.119 -0.003 c -1.103 -0.065 -1.944 -1.012 -1.879 -2.114 l 2.196 -37.53 c 0.064 -1.103 0.997 -1.948 2.114 -1.88 c 1.103 0.064 1.944 1.011 1.879 2.113 L 57.86 73.805 C 57.798 74.867 56.916 75.688 55.865 75.688 z" style="stroke: none; stroke-width: 1; stroke-dasharray: none; stroke-linecap: butt; stroke-linejoin: miter; stroke-miterlimit: 10; fill: rgb(0,0,0); fill-rule: nonzero; opacity: 1;" transform=" matrix(1 0 0 1 0 0) " stroke-linecap="round" />
	<path d="M 34.135 75.688 c -1.051 0 -1.933 -0.82 -1.995 -1.883 l -2.198 -37.531 c -0.064 -1.103 0.777 -2.049 1.88 -2.113 c 1.095 -0.072 2.049 0.777 2.113 1.88 l 2.198 37.53 c 0.064 1.103 -0.777 2.049 -1.88 2.113 C 34.214 75.687 34.174 75.688 34.135 75.688 z" style="stroke: none; stroke-width: 1; stroke-dasharray: none; stroke-linecap: butt; stroke-linejoin: miter; stroke-miterlimit: 10; fill: rgb(0,0,0); fill-rule: nonzero; opacity: 1;" transform=" matrix(1 0 0 1 0 0) " stroke-linecap="round" />
	<path d="M 45 75.688 c -1.104 0 -2 -0.896 -2 -2 V 36.157 c 0 -1.104 0.896 -2 2 -2 s 2 0.896 2 2 v 37.531 C 47 74.792 46.104 75.688 45 75.688 z" style="stroke: none; stroke-width: 1; stroke-dasharray: none; stroke-linecap: butt; stroke-linejoin: miter; stroke-miterlimit: 10; fill: rgb(0,0,0); fill-rule: nonzero; opacity: 1;" transform=" matrix(1 0 0 1 0 0) " stroke-linecap="round" />
</g>
</svg>