<svg xmlns="http://www.w3.org/2000/svg" width="32" height="32" id="truck"><path fill-rule="evenodd" d="M.5 1026.362a.5.5 0 0 0-.5.5v16a.5.5 0 0 0 .5.5h4.58c-.023.16-.05.322-.05.488 0 1.928 1.572 3.5 3.5 3.5 1.926 0 3.5-1.572 3.5-3.5 0-.166-.029-.327-.051-.488H20.5a.5.5 0 0 0 .1-.012h.98c-.024.165-.05.33-.05.5 0 1.927 1.572 3.5 3.5 3.5 1.926 0 3.5-1.573 3.5-3.5 0-.17-.028-.335-.051-.5H31.5a.5.5 0 0 0 .5-.5v-2.963a.5.5 0 0 0 .002-.035v-2.006a.5.5 0 0 0-.002-.05v-2.947a.5.5 0 0 0-.123-.33.5.5 0 0 0-.063-.078l-5.181-5.92a.5.5 0 0 0-.377-.17H21v-1.489a.5.5 0 0 0-.5-.5H.5zm.5 1h19v10.988H1v-10.988zm2.021.988a.5.5 0 0 0-.492.506v7.994a.5.5 0 1 0 1 0v-7.994a.5.5 0 0 0-.508-.506zm3 0a.5.5 0 0 0-.492.506v7.994a.5.5 0 1 0 1 0v-7.994a.5.5 0 0 0-.508-.506zm3 0a.5.5 0 0 0-.492.506v7.994a.5.5 0 1 0 1 0v-7.994a.5.5 0 0 0-.508-.506zm3 0a.5.5 0 0 0-.492.506v7.994a.5.5 0 1 0 1 0v-7.994a.5.5 0 0 0-.508-.506zm3 0a.5.5 0 0 0-.492.506v7.994a.5.5 0 1 0 1 0v-7.994a.5.5 0 0 0-.508-.506zm3 0a.5.5 0 0 0-.492.506v7.994a.5.5 0 1 0 1 0v-7.994a.5.5 0 0 0-.508-.506zm2.979 1h5.03l4.376 4.999H21v-4.998zm.03 5.999H31v1.998h-1.473a.5.5 0 0 0-.5.5v2.005a.5.5 0 0 0 .5.5H31v1.998h-2.822a3.498 3.498 0 0 0-3.149-2 3.498 3.498 0 0 0-3.148 2h-.852v-7.001zm1.44 1.502a.5.5 0 1 0 .051 1h1.016a.5.5 0 1 0 0-1h-1.016a.5.5 0 0 0-.05 0zm7.557 1.496H31v1.005h-.973v-1.005zM1 1039.35h19v3.011h-8.314a3.5 3.5 0 0 0-3.157-2.012 3.5 3.5 0 0 0-3.156 2.012H1v-1.012h1.521a.5.5 0 1 0 0-1H1v-1zm7.53 2c1.386 0 2.5 1.113 2.5 2.5 0 1.386-1.114 2.5-2.5 2.5a2.492 2.492 0 0 1-2.5-2.5c0-1.387 1.113-2.5 2.5-2.5zm16.5 0c1.386 0 2.5 1.113 2.5 2.5 0 1.386-1.114 2.5-2.5 2.5a2.492 2.492 0 0 1-2.5-2.5c0-1.387 1.113-2.5 2.5-2.5zm-16.5 1c-.823 0-1.5.677-1.5 1.5 0 .822.677 1.5 1.5 1.5.822 0 1.5-.678 1.5-1.5 0-.823-.678-1.5-1.5-1.5zm16.5 0c-.823 0-1.5.677-1.5 1.5 0 .822.677 1.5 1.5 1.5.822 0 1.5-.678 1.5-1.5 0-.823-.678-1.5-1.5-1.5zm-16.5 1c.281 0 .5.217.5.5 0 .282-.219.5-.5.5a.493.493 0 0 1-.5-.5c0-.283.217-.5.5-.5zm16.5 0c.281 0 .5.217.5.5 0 .282-.219.5-.5.5a.493.493 0 0 1-.5-.5c0-.283.217-.5.5-.5z" color="#000" font-family="sans-serif" font-weight="400" overflow="visible" transform="translate(0 -1020.362)" style="line-height:normal;text-indent:0;text-align:start;text-decoration-line:none;text-decoration-style:solid;text-decoration-color:#000;text-transform:none;block-progression:tb;white-space:normal;isolation:auto;mix-blend-mode:normal;solid-color:#000;solid-opacity:1"></path></svg>