<svg width="26" height="24" viewBox="0 0 26 24" fill="none" xmlns="http://www.w3.org/2000/svg">
    <path
      d="M16.7173 14H15.8896L15.5963 13.73C16.623 12.59 17.2412 11.11 17.2412 9.5C17.2412 5.91 14.1924 3 10.4311 3C6.66989 3 3.62109 5.91 3.62109 9.5C3.62109 13.09 6.66989 16 10.4311 16C12.1179 16 13.6685 15.41 14.8629 14.43L15.1458 14.71V15.5L20.3843 20.49L21.9453 19L16.7173 14V14ZM10.4311 14C7.82236 14 5.71649 11.99 5.71649 9.5C5.71649 7.01 7.82236 5 10.4311 5C13.0399 5 15.1458 7.01 15.1458 9.5C15.1458 11.99 13.0399 14 10.4311 14Z"
      fill="#FFFFFF"
    />
  <defs>
    <clipPath id="clip0_7195_24053">
      <rect width="25.1447" height="24" fill="white" transform="translate(0.476562)" />
    </clipPath>
  </defs>
</svg>
